<?xml version="1.0" encoding="UTF-8" standalone="no"?>
<!-- Created with Inkscape (http://www.inkscape.org/) -->

<svg
   xmlns:dc="http://purl.org/dc/elements/1.1/"
   xmlns:cc="http://creativecommons.org/ns#"
   xmlns:rdf="http://www.w3.org/1999/02/22-rdf-syntax-ns#"
   xmlns:svg="http://www.w3.org/2000/svg"
   xmlns="http://www.w3.org/2000/svg"
   xmlns:sodipodi="http://sodipodi.sourceforge.net/DTD/sodipodi-0.dtd"
   xmlns:inkscape="http://www.inkscape.org/namespaces/inkscape"
   id="svg2"
   version="1.1"
   inkscape:version="0.91 r13725"
   xml:space="preserve"
   width="169.08749"
   height="162.6375"
   viewBox="0 0 169.08749 162.6375"
   sodipodi:docname="logo.svg"><metadata
     id="metadata8"><rdf:RDF><cc:Work
         rdf:about=""><dc:format>image/svg+xml</dc:format><dc:type
           rdf:resource="http://purl.org/dc/dcmitype/StillImage" /><dc:title></dc:title></cc:Work></rdf:RDF></metadata><defs
     id="defs6"><inkscape:perspective
       sodipodi:type="inkscape:persp3d"
       inkscape:vp_x="-33.251098 : 79.42361 : 1"
       inkscape:vp_y="0 : 1000 : 0"
       inkscape:vp_z="135.83639 : 79.42361 : 1"
       inkscape:persp3d-origin="51.292647 : 52.31736 : 1"
       id="perspective4195" /></defs><sodipodi:namedview
     pagecolor="#ffffff"
     bordercolor="#666666"
     borderopacity="1"
     objecttolerance="10"
     gridtolerance="10"
     guidetolerance="10"
     inkscape:pageopacity="0"
     inkscape:pageshadow="2"
     inkscape:window-width="1518"
     inkscape:window-height="792"
     id="namedview4"
     showgrid="false"
     showguides="true"
     inkscape:guide-bbox="true"
     inkscape:zoom="2.9021598"
     inkscape:cx="96.633663"
     inkscape:cy="76.228838"
     inkscape:window-x="0"
     inkscape:window-y="30"
     inkscape:window-maximized="0"
     inkscape:current-layer="g10" /><g
     id="g10"
     inkscape:groupmode="layer"
     inkscape:label="ink_ext_XXXXXX"
     transform="matrix(1.25,0,0,-1.25,0,162.6375)"><circle
       style="opacity:1;fill:#e6e6e6;fill-opacity:1;stroke:#000000;stroke-width:4;stroke-miterlimit:1;stroke-dasharray:none;stroke-opacity:1"
       id="path4186"
       cx="67.634995"
       cy="-65.055"
       r="63.538887"
       transform="scale(1,-1)" /><g
       id="g154"
       transform="matrix(0.86202505,0,0,0.86202505,-283.64474,-71.898592)" /><g
       id="g4188"
       transform="matrix(1.0998719,0,0,1.0998719,-6.7548344,1.5028338)"><path
         inkscape:connector-curvature="0"
         id="path170"
         style="fill:#3367aa;fill-opacity:1;fill-rule:nonzero;stroke:none"
         d="M 100.81783,41.857604 C 98.964801,41.581 97.135008,40.868872 95.489622,39.944607 c -1.646134,-0.922765 -3.09812,-2.029934 -4.431669,-2.64536 -0.674649,-0.305841 -1.293827,-0.499988 -1.975968,-0.601934 -0.675396,-0.102697 -1.392769,-0.106445 -2.146873,-0.06746 -0.760851,0.0442 -1.478973,0.148422 -2.109392,0.335824 -0.642413,0.182154 -1.185877,0.420529 -1.745084,0.775842 -0.562205,0.353065 -1.143149,0.823068 -1.79006,1.35379 -0.641663,0.53297 -1.359036,1.145398 -2.137128,1.735339 -1.556182,1.193374 -3.451937,2.245072 -5.443641,2.888984 -0.996976,0.320082 -2.013443,0.542715 -3.024662,0.700882 l -0.755603,0.09595 c -0.123685,0.01574 -0.250369,0.03224 -0.397292,0.04422 l -0.385298,0.03073 c -0.505983,0.03524 -1.011218,0.05622 -1.514205,0.05473 -0.502985,-0.003 -1.004472,-0.02249 -1.50371,-0.05697 -0.538217,-0.03298 -1.043452,-0.107193 -1.543439,-0.17016 -1.011219,-0.159666 -2.028435,-0.377801 -3.023912,-0.70388 C 59.57148,43.070472 57.674227,42.022522 56.121042,40.8254 55.3437,40.23546 54.625577,39.62378 53.983915,39.090811 c -0.64766,-0.529972 -1.226356,-1.005223 -1.79081,-1.355289 -0.559207,-0.356813 -1.104171,-0.592939 -1.745833,-0.778841 -0.631919,-0.187401 -1.350791,-0.290847 -2.111641,-0.334325 -0.754105,-0.03898 -1.472977,-0.0382 -2.148373,0.06746 -0.682892,0.102697 -1.304315,0.296094 -1.978961,0.601934 -1.334299,0.616926 -2.785537,1.724844 -4.431673,2.64686 -1.643886,0.925014 -3.472926,1.637142 -5.325203,1.914497 -1.847781,0.301341 -3.69406,0.234626 -5.457884,-0.07646 1.763824,-0.332076 3.46543,-0.775844 5.008869,-1.467731 1.551686,-0.683641 2.907723,-1.606406 4.155819,-2.700832 0.628919,-0.546463 1.244347,-1.131905 1.897253,-1.748831 0.655156,-0.617676 1.377777,-1.251093 2.22858,-1.841034 0.844806,-0.592189 1.868019,-1.092926 2.903225,-1.403263 1.040454,-0.317083 2.092152,-0.484246 3.101871,-0.539717 1.002974,-0.05997 2.05767,-0.04719 3.154345,0.131931 1.087678,0.17166 2.217335,0.55321 3.202318,1.054697 0.985732,0.497738 1.838035,1.068938 2.587641,1.6169 0.753355,0.548712 1.415257,1.040454 2.07566,1.475226 1.308812,0.867294 2.563654,1.511956 3.957173,1.898004 0.691137,0.197895 1.403263,0.354563 2.138626,0.458009 0.376303,0.0397 0.745858,0.09145 1.089929,0.106444 0.381549,0.02171 0.763847,0.03149 1.143149,0.02849 0.379301,0 0.757852,-0.0068 1.132655,-0.0292 l 0.275106,-0.01799 c 0.07271,-0.0042 0.166412,-0.01499 0.260863,-0.02627 l 0.558456,-0.06297 c 0.735364,-0.104196 1.44824,-0.257115 2.137878,-0.460259 1.392768,-0.386795 2.649109,-1.028459 3.954923,-1.899502 0.660403,-0.434772 1.322305,-0.925764 2.07566,-1.474475 0.750357,-0.547963 1.599661,-1.122911 2.587641,-1.61915 0.984984,-0.502236 2.116889,-0.881538 3.203818,-1.056945 1.098174,-0.178407 2.15287,-0.19115 3.156592,-0.130432 1.01047,0.05619 2.062917,0.219635 3.103371,0.539717 1.035958,0.311086 2.060671,0.810324 2.906231,1.404012 1.709852,1.191125 2.858244,2.517928 4.12508,3.590615 1.247348,1.095175 2.60263,2.01794 4.152821,2.702331 1.54344,0.693386 3.2443,1.137904 5.00737,1.472228 -1.76307,0.313336 -3.60935,0.380801 -5.45863,0.08096" /><path
         inkscape:connector-curvature="0"
         id="path172"
         style="fill:#457cc8;fill-opacity:1;fill-rule:nonzero;stroke:none"
         d="m 56.838905,81.942054 21.592187,0 0,10.071644 -21.592187,0 0,-10.071644 z" /><path
         inkscape:connector-curvature="0"
         id="path174"
         style="fill:#77b5e6;fill-opacity:1;fill-rule:nonzero;stroke:none"
         d="m 67.902607,83.94725 -19.950774,0 0,-17.192972 4.041878,1.829787 0,10.861054 7.087528,0 0,-7.656483 5.131057,2.32303 0,5.333453 6.845405,0 0,-5.333453 5.131805,-2.32303 0,7.656483 7.087529,0 0,-10.861054 4.041128,-1.829787 0,17.192972 -19.415556,0" /><path
         inkscape:connector-curvature="0"
         id="path176"
         style="fill:#457cc8;fill-opacity:1;fill-rule:nonzero;stroke:none"
         d="m 67.642865,72.071238 0,0.0069 -0.0083,-0.0035 -0.0075,0.0035 0,-0.0069 -28.00979,-12.671346 4.196297,-11.953222 c 0.916768,-2.613878 2.359011,-4.931661 4.180555,-6.8589 0.01574,0.0075 0.02849,0.01577 0.04348,0.02549 l 0.03598,0.02321 c 0.456511,0.281851 1.038205,0.758603 1.711351,1.309563 l 0.397292,0.332826 c 0.679143,0.565952 1.44749,1.206866 2.287799,1.844781 2.316284,1.785563 4.965392,3.189576 7.660227,4.060618 1.263087,0.415282 2.641613,0.737614 4.203793,0.983487 l 0.05922,0.0075 0.381548,0.04874 c 0.279604,0.03598 0.576448,0.07721 0.894281,0.110187 l 0.540466,8.68494 c 0.179156,2.925719 0.579446,5.26224 1.132656,7.155745 l 0.292346,0.996227 0.293096,-0.996227 c 0.55321,-1.893505 0.9535,-4.230026 1.132656,-7.155745 l 0.540466,-8.68494 c 0.317833,-0.033 0.614677,-0.07421 0.893531,-0.110187 l 0.382299,-0.04874 0.05847,-0.0075 c 1.562929,-0.245873 2.941456,-0.568205 4.204543,-0.983487 2.694835,-0.871042 5.343943,-2.275055 7.660227,-4.060618 0.840309,-0.637915 1.608655,-1.278829 2.287799,-1.844781 l 0.396541,-0.332826 c 0.673897,-0.55096 1.255591,-1.027712 1.712102,-1.309563 l 0.03598,-0.02321 c 0.01499,-0.0097 0.02774,-0.01799 0.04348,-0.02549 1.820795,1.927239 3.263786,4.245022 4.180558,6.8589 l 4.196299,11.953222 -28.009798,12.671346" /><path
         inkscape:connector-curvature="0"
         id="path178"
         style="fill:#457cc8;fill-opacity:1;fill-rule:nonzero;stroke:none"
         d="m 63.663846,91.328628 7.942305,0 0,6.746463 -7.942305,0 0,-6.746463 z" /></g><path
       d="m 61.9068,63.614086 11.456395,0 0,2.88183 -11.456395,0 0,-2.88183 z"
       style="fill:#457cc8;fill-opacity:1;fill-rule:nonzero;stroke:none"
       id="path180"
       inkscape:connector-curvature="0" /><g
       id="g12"
       transform="matrix(0.01899353,0,0,0.01899353,54.789198,11.522601)"
       style="fill:#000000"><path
         d="m 399.391,589.141 60.535,-37.051 c 10.207,0 15.363,4.199 15.363,12.644 0,5.422 -2.453,12.922 -7.226,22.59 L 334.332,838.516 37.9492,831.277 c -13.2851,-0.632 -19.8789,-7.539 -19.8789,-20.781 0,-3.023 4.1992,-7.223 12.6524,-12.644 L 92.168,760.801 27.1094,659.617 C 9.03906,630.703 0,606.887 0,588.234 0,571.328 6.00781,552.355 18.0703,531.309 L 219.574,179.816 c -4.844,22.262 -7.234,43.368 -7.234,63.25 0,35.5 11.113,70.481 33.437,104.817 l 153.614,241.258"
         style="fill:#000000;fill-opacity:1;fill-rule:nonzero;stroke:none"
         id="path14"
         inkscape:connector-curvature="0" /><path
         d="m 477.094,794.238 166.261,257.522 c -62.082,141.54 -128.046,212.34 -197.89,212.34 -42.199,0 -70.481,-11.74 -84.934,-35.24 L 203.305,977.664 477.094,794.238"
         style="fill:#000000;fill-opacity:1;fill-rule:nonzero;stroke:none"
         id="path16"
         inkscape:connector-curvature="0" /><path
         d="m 341.559,96.6797 320.769,0 0,333.4293 -309.023,0 c -37.95,-54.218 -61.766,-91 -71.387,-110.246 -15.684,-30.722 -23.496,-62.082 -23.496,-93.965 0,-86.164 27.695,-129.2183 83.137,-129.2183"
         style="fill:#000000;fill-opacity:1;fill-rule:nonzero;stroke:none"
         id="path18"
         inkscape:connector-curvature="0" /><path
         d="m 1002.07,855.684 142.76,240.356 c 4.78,8.39 7.22,17.16 7.22,26.19 0,10.86 -3.61,16.28 -10.84,16.28 1.18,0 -3.61,-1.81 -14.45,-5.42 l -65.06,-29.83 -59.63,118.37 c -26.527,53 -79.527,79.52 -159.039,79.52 l -371.355,0 c 45.176,-13.87 75.898,-27.43 92.168,-40.66 37.949,-30.14 76.797,-86.75 116.543,-169.88 l 74.09,-155.415 -55.118,-26.203 c -5.418,-2.449 -8.132,-7.222 -8.132,-14.461 0,-9.035 5.691,-14.187 17.168,-15.359 l 293.675,-23.488"
         style="fill:#000000;fill-opacity:1;fill-rule:nonzero;stroke:none"
         id="path20"
         inkscape:connector-curvature="0" /><path
         d="m 1144.83,146.379 207.82,377.703 c -30.72,-34.98 -64.15,-58.469 -100.29,-70.488 -28.92,-9.668 -70.22,-14.453 -123.79,-14.453 l -231.32,0 0,47.89 c 0,18.653 -4.52,28.008 -13.555,28.008 -6.648,0 -11.484,-2.441 -14.461,-7.226 L 722.855,253.906 874.664,20.7813 C 886.09,3.29297 896.031,-3.61328 904.477,0 c 8.398,2.39453 12.648,6.90234 12.648,13.5547 l 0,79.5117 128.305,0 c 47,0 80.1,17.7536 99.4,53.3126"
         style="fill:#000000;fill-opacity:1;fill-rule:nonzero;stroke:none"
         id="path22"
         inkscape:connector-curvature="0" /><path
         d="m 1054.47,487.031 138.25,0 c 33.12,0 67.45,14.453 103.01,43.371 37.95,30.086 56.92,62.032 56.92,95.782 0,15.625 -5.15,30.984 -15.36,46.082 L 1172.85,923.445 890.016,758.992 1054.47,487.031"
         style="fill:#000000;fill-opacity:1;fill-rule:nonzero;stroke:none"
         id="path24"
         inkscape:connector-curvature="0" /></g></g></svg>