<?xml version="1.0" encoding="UTF-8" standalone="no"?>
<!-- Generated by IcoMoon.io -->

<svg
   xmlns:dc="http://purl.org/dc/elements/1.1/"
   xmlns:cc="http://creativecommons.org/ns#"
   xmlns:rdf="http://www.w3.org/1999/02/22-rdf-syntax-ns#"
   xmlns:svg="http://www.w3.org/2000/svg"
   xmlns="http://www.w3.org/2000/svg"
   xmlns:sodipodi="http://sodipodi.sourceforge.net/DTD/sodipodi-0.dtd"
   xmlns:inkscape="http://www.inkscape.org/namespaces/inkscape"
   version="1.1"
   width="32"
   height="32"
   viewBox="0 0 32 32"
   id="svg2"
   inkscape:version="0.91 r13725"
   sodipodi:docname="marker.svg">
  <metadata
     id="metadata12">
    <rdf:RDF>
      <cc:Work
         rdf:about="">
        <dc:format>image/svg+xml</dc:format>
        <dc:type
           rdf:resource="http://purl.org/dc/dcmitype/StillImage" />
        <dc:title>location</dc:title>
      </cc:Work>
    </rdf:RDF>
  </metadata>
  <defs
     id="defs10" />
  <sodipodi:namedview
     pagecolor="#ffffff"
     bordercolor="#666666"
     borderopacity="1"
     objecttolerance="10"
     gridtolerance="10"
     guidetolerance="10"
     inkscape:pageopacity="0"
     inkscape:pageshadow="2"
     inkscape:window-width="1664"
     inkscape:window-height="480"
     id="namedview8"
     showgrid="false"
     inkscape:zoom="20.85965"
     inkscape:cx="2.36026"
     inkscape:cy="19.457586"
     inkscape:window-x="98"
     inkscape:window-y="77"
     inkscape:window-maximized="0"
     inkscape:current-layer="svg2" />
  <title
     id="title4">location</title>
  <path
     d="M16 0c-5.523 0-10 4.477-10 10 0 10 10 22 10 22s10-12 10-22c0-5.523-4.477-10-10-10zM16 16c-3.314 0-6-2.686-6-6s2.686-6 6-6 6 2.686 6 6-2.686 6-6 6z"
     id="path6"
     style="fill:#448aff;fill-opacity:1" />
  <g
     id="g12"
     transform="matrix(0.0060992,0,0,-0.0060992,11.874959,13.975782)"
     style="fill:#000000">
    <path
       d="m 399.391,589.141 60.535,-37.051 c 10.207,0 15.363,4.199 15.363,12.644 0,5.422 -2.453,12.922 -7.226,22.59 L 334.332,838.516 37.9492,831.277 c -13.2851,-0.632 -19.8789,-7.539 -19.8789,-20.781 0,-3.023 4.1992,-7.223 12.6524,-12.644 L 92.168,760.801 27.1094,659.617 C 9.03906,630.703 0,606.887 0,588.234 0,571.328 6.00781,552.355 18.0703,531.309 L 219.574,179.816 c -4.844,22.262 -7.234,43.368 -7.234,63.25 0,35.5 11.113,70.481 33.437,104.817 l 153.614,241.258"
       style="fill:#000000;fill-opacity:1;fill-rule:nonzero;stroke:none"
       id="path14"
       inkscape:connector-curvature="0" />
    <path
       d="m 477.094,794.238 166.261,257.522 c -62.082,141.54 -128.046,212.34 -197.89,212.34 -42.199,0 -70.481,-11.74 -84.934,-35.24 L 203.305,977.664 477.094,794.238"
       style="fill:#000000;fill-opacity:1;fill-rule:nonzero;stroke:none"
       id="path16"
       inkscape:connector-curvature="0" />
    <path
       d="m 341.559,96.6797 320.769,0 0,333.4293 -309.023,0 c -37.95,-54.218 -61.766,-91 -71.387,-110.246 -15.684,-30.722 -23.496,-62.082 -23.496,-93.965 0,-86.164 27.695,-129.2183 83.137,-129.2183"
       style="fill:#000000;fill-opacity:1;fill-rule:nonzero;stroke:none"
       id="path18"
       inkscape:connector-curvature="0" />
    <path
       d="m 1002.07,855.684 142.76,240.356 c 4.78,8.39 7.22,17.16 7.22,26.19 0,10.86 -3.61,16.28 -10.84,16.28 1.18,0 -3.61,-1.81 -14.45,-5.42 l -65.06,-29.83 -59.63,118.37 c -26.527,53 -79.527,79.52 -159.039,79.52 l -371.355,0 c 45.176,-13.87 75.898,-27.43 92.168,-40.66 37.949,-30.14 76.797,-86.75 116.543,-169.88 l 74.09,-155.415 -55.118,-26.203 c -5.418,-2.449 -8.132,-7.222 -8.132,-14.461 0,-9.035 5.691,-14.187 17.168,-15.359 l 293.675,-23.488"
       style="fill:#000000;fill-opacity:1;fill-rule:nonzero;stroke:none"
       id="path20"
       inkscape:connector-curvature="0" />
    <path
       d="m 1144.83,146.379 207.82,377.703 c -30.72,-34.98 -64.15,-58.469 -100.29,-70.488 -28.92,-9.668 -70.22,-14.453 -123.79,-14.453 l -231.32,0 0,47.89 c 0,18.653 -4.52,28.008 -13.555,28.008 -6.648,0 -11.484,-2.441 -14.461,-7.226 L 722.855,253.906 874.664,20.7813 C 886.09,3.29297 896.031,-3.61328 904.477,0 c 8.398,2.39453 12.648,6.90234 12.648,13.5547 l 0,79.5117 128.305,0 c 47,0 80.1,17.7536 99.4,53.3126"
       style="fill:#000000;fill-opacity:1;fill-rule:nonzero;stroke:none"
       id="path22"
       inkscape:connector-curvature="0" />
    <path
       d="m 1054.47,487.031 138.25,0 c 33.12,0 67.45,14.453 103.01,43.371 37.95,30.086 56.92,62.032 56.92,95.782 0,15.625 -5.15,30.984 -15.36,46.082 L 1172.85,923.445 890.016,758.992 1054.47,487.031"
       style="fill:#000000;fill-opacity:1;fill-rule:nonzero;stroke:none"
       id="path24"
       inkscape:connector-curvature="0" />
  </g>
</svg>
