<?xml version="1.0" encoding="UTF-8" standalone="no"?>
<!-- Generated by IcoMoon.io -->

<svg
   xmlns:dc="http://purl.org/dc/elements/1.1/"
   xmlns:cc="http://creativecommons.org/ns#"
   xmlns:rdf="http://www.w3.org/1999/02/22-rdf-syntax-ns#"
   xmlns:svg="http://www.w3.org/2000/svg"
   xmlns="http://www.w3.org/2000/svg"
   xmlns:sodipodi="http://sodipodi.sourceforge.net/DTD/sodipodi-0.dtd"
   xmlns:inkscape="http://www.inkscape.org/namespaces/inkscape"
   version="1.1"
   width="32"
   height="32"
   viewBox="0 0 32 32"
   id="svg2"
   inkscape:version="0.91 r13725"
   sodipodi:docname="shipmarker.svg">
  <metadata
     id="metadata12">
    <rdf:RDF>
      <cc:Work
         rdf:about="">
        <dc:format>image/svg+xml</dc:format>
        <dc:type
           rdf:resource="http://purl.org/dc/dcmitype/StillImage" />
        <dc:title>location</dc:title>
      </cc:Work>
    </rdf:RDF>
  </metadata>
  <defs
     id="defs10" />
  <sodipodi:namedview
     pagecolor="#ffffff"
     bordercolor="#666666"
     borderopacity="1"
     objecttolerance="10"
     gridtolerance="10"
     guidetolerance="10"
     inkscape:pageopacity="0"
     inkscape:pageshadow="2"
     inkscape:window-width="1920"
     inkscape:window-height="1017"
     id="namedview8"
     showgrid="false"
     inkscape:zoom="20.85965"
     inkscape:cx="16.210252"
     inkscape:cy="18.425448"
     inkscape:window-x="0"
     inkscape:window-y="30"
     inkscape:window-maximized="1"
     inkscape:current-layer="svg2"
     showguides="false" />
  <title
     id="title4">location</title>
  <path
     d="M16 0c-5.523 0-10 4.477-10 10 0 10 10 22 10 22s10-12 10-22c0-5.523-4.477-10-10-10zM16 16c-3.314 0-6-2.686-6-6s2.686-6 6-6 6 2.686 6 6-2.686 6-6 6z"
     id="path6"
     style="fill:#448aff;fill-opacity:1"
     inkscape:export-xdpi="112.5"
     inkscape:export-ydpi="112.5" />
  <g
     id="g4188"
     transform="matrix(0.14842723,0,0,-0.14842723,5.9611326,19.951885)"
     style="fill:#000000"
     inkscape:export-xdpi="112"
     inkscape:export-ydpi="112">
    <path
       inkscape:connector-curvature="0"
       id="path172"
       style="fill:#000000;fill-opacity:1;fill-rule:nonzero;stroke:none"
       d="m 56.838905,81.942054 21.592187,0 0,10.071644 -21.592187,0 0,-10.071644 z" />
    <path
       inkscape:connector-curvature="0"
       id="path174"
       style="fill:#000000;fill-opacity:1;fill-rule:nonzero;stroke:none"
       d="m 67.902607,83.94725 -19.950774,0 0,-17.192972 4.041878,1.829787 0,10.861054 7.087528,0 0,-7.656483 5.131057,2.32303 0,5.333453 6.845405,0 0,-5.333453 5.131805,-2.32303 0,7.656483 7.087529,0 0,-10.861054 4.041128,-1.829787 0,17.192972 -19.415556,0" />
    <path
       inkscape:connector-curvature="0"
       id="path176"
       style="fill:#000000;fill-opacity:1;fill-rule:nonzero;stroke:none"
       d="m 67.642865,72.071238 0,0.0069 -0.0083,-0.0035 -0.0075,0.0035 0,-0.0069 -28.00979,-12.671346 4.196297,-11.953222 c 0.916768,-2.613878 2.359011,-4.931661 4.180555,-6.8589 0.01574,0.0075 0.02849,0.01577 0.04348,0.02549 l 0.03598,0.02321 c 0.456511,0.281851 1.038205,0.758603 1.711351,1.309563 l 0.397292,0.332826 c 0.679143,0.565952 1.44749,1.206866 2.287799,1.844781 2.316284,1.785563 4.965392,3.189576 7.660227,4.060618 1.263087,0.415282 2.641613,0.737614 4.203793,0.983487 l 0.05922,0.0075 0.381548,0.04874 c 0.279604,0.03598 0.576448,0.07721 0.894281,0.110187 l 0.540466,8.68494 c 0.179156,2.925719 0.579446,5.26224 1.132656,7.155745 l 0.292346,0.996227 0.293096,-0.996227 c 0.55321,-1.893505 0.9535,-4.230026 1.132656,-7.155745 l 0.540466,-8.68494 c 0.317833,-0.033 0.614677,-0.07421 0.893531,-0.110187 l 0.382299,-0.04874 0.05847,-0.0075 c 1.562929,-0.245873 2.941456,-0.568205 4.204543,-0.983487 2.694835,-0.871042 5.343943,-2.275055 7.660227,-4.060618 0.840309,-0.637915 1.608655,-1.278829 2.287799,-1.844781 l 0.396541,-0.332826 c 0.673897,-0.55096 1.255591,-1.027712 1.712102,-1.309563 l 0.03598,-0.02321 c 0.01499,-0.0097 0.02774,-0.01799 0.04348,-0.02549 1.820795,1.927239 3.263786,4.245022 4.180558,6.8589 l 4.196299,11.953222 -28.009798,12.671346" />
    <path
       inkscape:connector-curvature="0"
       id="path178"
       style="fill:#000000;fill-opacity:1;fill-rule:nonzero;stroke:none"
       d="m 63.663846,91.328628 7.942305,0 0,6.746463 -7.942305,0 0,-6.746463 z" />
  </g>
</svg>
